# xmcd CD database file
#
# Track frame offsets:
#	150
#	9090
#	20977
#	30255
#	41680
#	51870
#	63690
#	73875
#	86452
#	94970
#
# Disc length: 1409 seconds
#
# Revision: 3
# Processed by: cddbd v1.5.2PL0 Copyright (c) Steve Scherf et al.
# Submitted via: jetAudio 7
#
DISCID=81057f0a
DTITLE=Various Artist - Classic Rock Surf City
DYEAR=1999
DGENRE=Classic Rock
TTITLE0=Jan and Dean - Surf City
TTITLE1=Danny and The Juniors - At The Hop
TTITLE2=Gary Lewis and The Playboys - This Diamond Ring
TTITLE3=Bobby Freeman - Do You Wanna Dance
TTITLE4=The Chiffons - One Fine Day
TTITLE5=The Shirelles - Will You Love Me Tomarrow
TTITLE6=Buddy Knox - Party Doll
TTITLE7=Mary Wells - My Guy
TTITLE8=The Costers - Yakety Yak
TTITLE9=Bobby Lewis - Tossin' And Turnin'
EXTD=Oldies
EXTT0=
EXTT1=
EXTT2=
EXTT3=
EXTT4=
EXTT5=
EXTT6=
EXTT7=
EXTT8=
EXTT9=
PLAYORDER=
